<mxfile host="app.diagrams.net" modified="2022-05-06T13:14:07.360Z" agent="5.0 (Windows NT 10.0; Win64; x64) AppleWebKit/537.36 (KHTML, like Gecko) Chrome/101.0.4951.41 Safari/537.36 Edg/101.0.1210.32" etag="HgnzvI3s2ukBrHKw_4wa" version="18.0.1" type="github">
  <diagram id="hSvju1pkOoI1Sm4VRxSP" name="Page-1">
    <mxGraphModel dx="830" dy="494" grid="1" gridSize="10" guides="1" tooltips="1" connect="1" arrows="1" fold="1" page="1" pageScale="1" pageWidth="827" pageHeight="1169" math="0" shadow="0">
      <root>
        <mxCell id="0" />
        <mxCell id="1" parent="0" />
        <mxCell id="rQSVLFETWY5VNo-RYIhS-1" value="Openlookeng CLI" style="rounded=0;whiteSpace=wrap;html=1;" vertex="1" parent="1">
          <mxGeometry x="60" y="160" width="100" height="40" as="geometry" />
        </mxCell>
        <mxCell id="rQSVLFETWY5VNo-RYIhS-2" value="" style="endArrow=classic;html=1;rounded=0;" edge="1" parent="1" target="rQSVLFETWY5VNo-RYIhS-3">
          <mxGeometry width="50" height="50" relative="1" as="geometry">
            <mxPoint x="160" y="180" as="sourcePoint" />
            <mxPoint x="210" y="180" as="targetPoint" />
          </mxGeometry>
        </mxCell>
        <mxCell id="rQSVLFETWY5VNo-RYIhS-3" value="Openlookeng coordinator" style="rounded=0;whiteSpace=wrap;html=1;" vertex="1" parent="1">
          <mxGeometry x="240" y="160" width="90" height="40" as="geometry" />
        </mxCell>
        <mxCell id="rQSVLFETWY5VNo-RYIhS-4" value="Hive Metastore" style="rounded=0;whiteSpace=wrap;html=1;" vertex="1" parent="1">
          <mxGeometry x="240" y="90" width="90" height="30" as="geometry" />
        </mxCell>
        <mxCell id="rQSVLFETWY5VNo-RYIhS-5" value="" style="endArrow=classic;html=1;rounded=0;entryX=0.5;entryY=1;entryDx=0;entryDy=0;" edge="1" parent="1" target="rQSVLFETWY5VNo-RYIhS-4">
          <mxGeometry width="50" height="50" relative="1" as="geometry">
            <mxPoint x="280" y="160" as="sourcePoint" />
            <mxPoint x="330" y="110" as="targetPoint" />
            <Array as="points">
              <mxPoint x="285" y="160" />
            </Array>
          </mxGeometry>
        </mxCell>
        <mxCell id="rQSVLFETWY5VNo-RYIhS-8" value="Openlookeng Worker" style="rounded=0;whiteSpace=wrap;html=1;" vertex="1" parent="1">
          <mxGeometry x="380" y="160" width="100" height="40" as="geometry" />
        </mxCell>
        <mxCell id="rQSVLFETWY5VNo-RYIhS-9" value="Openlookeng Worker" style="rounded=0;whiteSpace=wrap;html=1;" vertex="1" parent="1">
          <mxGeometry x="380" y="80" width="100" height="40" as="geometry" />
        </mxCell>
        <mxCell id="rQSVLFETWY5VNo-RYIhS-10" value="Openlookeng Worker" style="rounded=0;whiteSpace=wrap;html=1;" vertex="1" parent="1">
          <mxGeometry x="380" y="240" width="100" height="40" as="geometry" />
        </mxCell>
        <mxCell id="rQSVLFETWY5VNo-RYIhS-11" value="" style="endArrow=classic;html=1;rounded=0;entryX=0;entryY=0.5;entryDx=0;entryDy=0;" edge="1" parent="1" target="rQSVLFETWY5VNo-RYIhS-9">
          <mxGeometry width="50" height="50" relative="1" as="geometry">
            <mxPoint x="330" y="180" as="sourcePoint" />
            <mxPoint x="380" y="130" as="targetPoint" />
          </mxGeometry>
        </mxCell>
        <mxCell id="rQSVLFETWY5VNo-RYIhS-12" value="" style="endArrow=classic;html=1;rounded=0;entryX=0;entryY=0.5;entryDx=0;entryDy=0;" edge="1" parent="1" target="rQSVLFETWY5VNo-RYIhS-8">
          <mxGeometry width="50" height="50" relative="1" as="geometry">
            <mxPoint x="330" y="180" as="sourcePoint" />
            <mxPoint x="380" y="130" as="targetPoint" />
          </mxGeometry>
        </mxCell>
        <mxCell id="rQSVLFETWY5VNo-RYIhS-13" value="" style="endArrow=classic;html=1;rounded=0;entryX=0;entryY=0.5;entryDx=0;entryDy=0;" edge="1" parent="1" target="rQSVLFETWY5VNo-RYIhS-10">
          <mxGeometry width="50" height="50" relative="1" as="geometry">
            <mxPoint x="330" y="180" as="sourcePoint" />
            <mxPoint x="380" y="130" as="targetPoint" />
          </mxGeometry>
        </mxCell>
        <mxCell id="rQSVLFETWY5VNo-RYIhS-14" value="Mysql Connector" style="rounded=0;whiteSpace=wrap;html=1;" vertex="1" parent="1">
          <mxGeometry x="530" y="160" width="110" height="40" as="geometry" />
        </mxCell>
        <mxCell id="rQSVLFETWY5VNo-RYIhS-15" value="Hive Connector" style="rounded=0;whiteSpace=wrap;html=1;" vertex="1" parent="1">
          <mxGeometry x="530" y="80" width="110" height="40" as="geometry" />
        </mxCell>
        <mxCell id="rQSVLFETWY5VNo-RYIhS-16" value="Habase Connector" style="rounded=0;whiteSpace=wrap;html=1;" vertex="1" parent="1">
          <mxGeometry x="530" y="240" width="110" height="40" as="geometry" />
        </mxCell>
        <mxCell id="rQSVLFETWY5VNo-RYIhS-17" value="" style="endArrow=classic;html=1;rounded=0;entryX=0;entryY=0.5;entryDx=0;entryDy=0;" edge="1" parent="1" target="rQSVLFETWY5VNo-RYIhS-15">
          <mxGeometry width="50" height="50" relative="1" as="geometry">
            <mxPoint x="480" y="100" as="sourcePoint" />
            <mxPoint x="530" y="50" as="targetPoint" />
          </mxGeometry>
        </mxCell>
        <mxCell id="rQSVLFETWY5VNo-RYIhS-18" value="" style="endArrow=classic;html=1;rounded=0;entryX=0;entryY=0.5;entryDx=0;entryDy=0;" edge="1" parent="1">
          <mxGeometry width="50" height="50" relative="1" as="geometry">
            <mxPoint x="480" y="179.6" as="sourcePoint" />
            <mxPoint x="530" y="179.6" as="targetPoint" />
          </mxGeometry>
        </mxCell>
        <mxCell id="rQSVLFETWY5VNo-RYIhS-19" value="" style="endArrow=classic;html=1;rounded=0;entryX=0;entryY=0.5;entryDx=0;entryDy=0;" edge="1" parent="1">
          <mxGeometry width="50" height="50" relative="1" as="geometry">
            <mxPoint x="480" y="259.6" as="sourcePoint" />
            <mxPoint x="530" y="259.6" as="targetPoint" />
          </mxGeometry>
        </mxCell>
        <mxCell id="rQSVLFETWY5VNo-RYIhS-25" value="Hive" style="swimlane;fontStyle=0;childLayout=stackLayout;horizontal=1;startSize=30;horizontalStack=0;resizeParent=1;resizeParentMax=0;resizeLast=0;collapsible=1;marginBottom=0;" vertex="1" parent="1">
          <mxGeometry x="680" y="20" width="116" height="90" as="geometry" />
        </mxCell>
        <mxCell id="rQSVLFETWY5VNo-RYIhS-26" value="Schema" style="text;strokeColor=none;fillColor=none;align=left;verticalAlign=middle;spacingLeft=4;spacingRight=4;overflow=hidden;points=[[0,0.5],[1,0.5]];portConstraint=eastwest;rotatable=0;" vertex="1" parent="rQSVLFETWY5VNo-RYIhS-25">
          <mxGeometry y="30" width="116" height="30" as="geometry" />
        </mxCell>
        <mxCell id="rQSVLFETWY5VNo-RYIhS-27" value="Table" style="text;strokeColor=none;fillColor=none;align=left;verticalAlign=middle;spacingLeft=4;spacingRight=4;overflow=hidden;points=[[0,0.5],[1,0.5]];portConstraint=eastwest;rotatable=0;" vertex="1" parent="rQSVLFETWY5VNo-RYIhS-25">
          <mxGeometry y="60" width="116" height="30" as="geometry" />
        </mxCell>
        <mxCell id="rQSVLFETWY5VNo-RYIhS-29" value="Mysql" style="swimlane;fontStyle=0;childLayout=stackLayout;horizontal=1;startSize=30;horizontalStack=0;resizeParent=1;resizeParentMax=0;resizeLast=0;collapsible=1;marginBottom=0;" vertex="1" parent="1">
          <mxGeometry x="680" y="135" width="116" height="90" as="geometry" />
        </mxCell>
        <mxCell id="rQSVLFETWY5VNo-RYIhS-30" value="Schema" style="text;strokeColor=none;fillColor=none;align=left;verticalAlign=middle;spacingLeft=4;spacingRight=4;overflow=hidden;points=[[0,0.5],[1,0.5]];portConstraint=eastwest;rotatable=0;" vertex="1" parent="rQSVLFETWY5VNo-RYIhS-29">
          <mxGeometry y="30" width="116" height="30" as="geometry" />
        </mxCell>
        <mxCell id="rQSVLFETWY5VNo-RYIhS-31" value="Table" style="text;strokeColor=none;fillColor=none;align=left;verticalAlign=middle;spacingLeft=4;spacingRight=4;overflow=hidden;points=[[0,0.5],[1,0.5]];portConstraint=eastwest;rotatable=0;" vertex="1" parent="rQSVLFETWY5VNo-RYIhS-29">
          <mxGeometry y="60" width="116" height="30" as="geometry" />
        </mxCell>
        <mxCell id="rQSVLFETWY5VNo-RYIhS-33" value="Habase" style="swimlane;fontStyle=0;childLayout=stackLayout;horizontal=1;startSize=30;horizontalStack=0;resizeParent=1;resizeParentMax=0;resizeLast=0;collapsible=1;marginBottom=0;" vertex="1" parent="1">
          <mxGeometry x="680" y="250" width="116" height="90" as="geometry" />
        </mxCell>
        <mxCell id="rQSVLFETWY5VNo-RYIhS-34" value="Schema" style="text;strokeColor=none;fillColor=none;align=left;verticalAlign=middle;spacingLeft=4;spacingRight=4;overflow=hidden;points=[[0,0.5],[1,0.5]];portConstraint=eastwest;rotatable=0;" vertex="1" parent="rQSVLFETWY5VNo-RYIhS-33">
          <mxGeometry y="30" width="116" height="30" as="geometry" />
        </mxCell>
        <mxCell id="rQSVLFETWY5VNo-RYIhS-35" value="Table" style="text;strokeColor=none;fillColor=none;align=left;verticalAlign=middle;spacingLeft=4;spacingRight=4;overflow=hidden;points=[[0,0.5],[1,0.5]];portConstraint=eastwest;rotatable=0;" vertex="1" parent="rQSVLFETWY5VNo-RYIhS-33">
          <mxGeometry y="60" width="116" height="30" as="geometry" />
        </mxCell>
        <mxCell id="rQSVLFETWY5VNo-RYIhS-36" value="" style="endArrow=classic;html=1;rounded=0;entryX=0;entryY=0.5;entryDx=0;entryDy=0;" edge="1" parent="1" target="rQSVLFETWY5VNo-RYIhS-26">
          <mxGeometry width="50" height="50" relative="1" as="geometry">
            <mxPoint x="640" y="100" as="sourcePoint" />
            <mxPoint x="690" y="50" as="targetPoint" />
          </mxGeometry>
        </mxCell>
        <mxCell id="rQSVLFETWY5VNo-RYIhS-37" value="" style="endArrow=classic;html=1;rounded=0;entryX=0;entryY=0.5;entryDx=0;entryDy=0;" edge="1" parent="1" target="rQSVLFETWY5VNo-RYIhS-30">
          <mxGeometry width="50" height="50" relative="1" as="geometry">
            <mxPoint x="640" y="180" as="sourcePoint" />
            <mxPoint x="690" y="130" as="targetPoint" />
          </mxGeometry>
        </mxCell>
        <mxCell id="rQSVLFETWY5VNo-RYIhS-38" value="" style="endArrow=classic;html=1;rounded=0;entryX=0;entryY=0.5;entryDx=0;entryDy=0;" edge="1" parent="1" target="rQSVLFETWY5VNo-RYIhS-34">
          <mxGeometry width="50" height="50" relative="1" as="geometry">
            <mxPoint x="640" y="260" as="sourcePoint" />
            <mxPoint x="690" y="210" as="targetPoint" />
          </mxGeometry>
        </mxCell>
      </root>
    </mxGraphModel>
  </diagram>
</mxfile>
